<svg xmlns="http://www.w3.org/2000/svg" xmlns:xlink="http://www.w3.org/1999/xlink" width="56" height="55" viewBox="0 0 56 55">
  <defs>
    <clipPath id="clip-path">
      <rect id="Rectangle_8" data-name="Rectangle 8" width="56" height="55" transform="translate(363 407)" fill="#fff" stroke="#707070" stroke-width="1"/>
    </clipPath>
  </defs>
  <g id="_5Star" data-name="5Star" transform="translate(-363 -407)" clip-path="url(#clip-path)">
    <g id="Group_185" data-name="Group 185">
      <g id="_5Star-2" data-name="5Star">
        <path id="star" d="M44.7,15.91a2.356,2.356,0,0,0-2.05-1.556L29.713,13.238,24.6,1.865a2.433,2.433,0,0,0-4.381,0L15.1,13.238,2.166,14.354A2.36,2.36,0,0,0,.117,15.91a2.188,2.188,0,0,0,.7,2.4l9.777,8.146L7.708,38.526a2.207,2.207,0,0,0,.926,2.336,2.471,2.471,0,0,0,2.616.109l11.157-6.335,11.153,6.335a2.477,2.477,0,0,0,2.618-.109,2.208,2.208,0,0,0,.926-2.336L34.222,26.46,44,18.315a2.192,2.192,0,0,0,.7-2.405Zm0,0" transform="translate(368.175 413.042)" fill="#ffc107"/>
        <text id="_5" data-name="5" transform="translate(386.425 438.706)" fill="#fff" font-size="11" font-family="Poppins-Light, Poppins" font-weight="300"><tspan x="0" y="0">5</tspan></text>
      </g>
      <g id="Rectangle_7" data-name="Rectangle 7" transform="translate(341 435)" fill="#fff" stroke="#707070" stroke-width="1">
        <rect width="3" height="14" stroke="none"/>
        <rect x="0.5" y="0.5" width="2" height="13" fill="none"/>
      </g>
    </g>
  </g>
</svg>
