<svg xmlns="http://www.w3.org/2000/svg" width="26.717" height="26.717" viewBox="0 0 26.717 26.717"><g transform="translate(-712.745 -638.5)"><ellipse cx="13.359" cy="13.359" rx="13.359" ry="13.359" transform="translate(712.745 638.5)" fill="#7aacb3"/><g transform="translate(719.608 645.377)"><g transform="translate(3.441 7.432)"><path d="M141.364,297.151h-5.329a.388.388,0,0,0-.388.388v1.027A2.359,2.359,0,0,0,138,300.922H139.4a2.359,2.359,0,0,0,2.356-2.356v-1.027A.388.388,0,0,0,141.364,297.151Zm-1.968,3H138a1.582,1.582,0,0,1-1.58-1.58v-.639h4.553v.639h0A1.582,1.582,0,0,1,139.4,300.146Z" transform="translate(-135.647 -297.151)" fill="#fff"/></g><g transform="translate(3.441 5.885)"><path d="M141.364,236.135h-5.329a.388.388,0,0,0,0,.776h5.329a.388.388,0,0,0,0-.776Z" transform="translate(-135.647 -236.135)" fill="#fff"/></g><g transform="translate(0 0)"><path d="M11.222,10.037v-.5a4.7,4.7,0,0,0-.306-1.673V5.072a.938.938,0,0,0-.937-.937H9.113a.938.938,0,0,0-.937.937V5.12a4.727,4.727,0,0,0-3.365,0V5.072a.938.938,0,0,0-.937-.937H3.008a.938.938,0,0,0-.937.937V7.866a4.705,4.705,0,0,0-.306,1.673v.5A2.069,2.069,0,0,0,0,12.081v1.912a1.165,1.165,0,0,0,1.164,1.164h.6v.168a1.588,1.588,0,0,0,1.586,1.586H9.636a1.588,1.588,0,0,0,1.586-1.586v-.168h.6a1.165,1.165,0,0,0,1.164-1.164V12.081A2.069,2.069,0,0,0,11.222,10.037ZM1.765,14.381h-.6a.388.388,0,0,1-.388-.388V12.081a1.292,1.292,0,0,1,.988-1.254ZM8.952,5.072a.161.161,0,0,1,.161-.161h.866a.161.161,0,0,1,.161.161v1.46A4.765,4.765,0,0,0,8.952,5.5v-.43Zm-6.105,0a.161.161,0,0,1,.161-.161h.866a.161.161,0,0,1,.161.161V5.5A4.765,4.765,0,0,0,2.847,6.532V5.072Zm7.6,10.254h0a.811.811,0,0,1-.81.81H3.351a.811.811,0,0,1-.81-.81V9.539a3.953,3.953,0,0,1,7.6-1.525h0a3.931,3.931,0,0,1,.306,1.524Zm1.765-1.333a.388.388,0,0,1-.388.388h-.6V10.827a1.292,1.292,0,0,1,.988,1.254Z" transform="translate(0 -4.135)" fill="#fff"/></g></g></g></svg>