<svg xmlns="http://www.w3.org/2000/svg" width="23" height="22.628" viewBox="0 0 23 22.628"><g transform="translate(0 -4.135)"><g transform="translate(6.094 17.298)"><path d="M145.773,297.151h-9.438a.687.687,0,0,0-.687.687v1.819a4.178,4.178,0,0,0,4.173,4.173h2.467a4.178,4.178,0,0,0,4.173-4.173v-1.819A.687.687,0,0,0,145.773,297.151Zm-3.486,5.3H139.82a2.8,2.8,0,0,1-2.8-2.8v-1.131h8.064v1.131h0A2.8,2.8,0,0,1,142.287,302.455Z" transform="translate(-135.647 -297.151)" fill="#7aacb3"/></g><g transform="translate(6.094 14.557)"><path d="M145.773,236.135h-9.438a.687.687,0,0,0,0,1.375h9.438a.687.687,0,0,0,0-1.375Z" transform="translate(-135.647 -236.135)" fill="#7aacb3"/></g><g transform="translate(0 4.135)"><path d="M19.875,14.588v-.882a8.332,8.332,0,0,0-.542-2.963V5.794a1.661,1.661,0,0,0-1.659-1.659H16.139A1.661,1.661,0,0,0,14.48,5.794V5.88a8.371,8.371,0,0,0-5.96,0V5.794A1.661,1.661,0,0,0,6.861,4.135H5.326A1.661,1.661,0,0,0,3.667,5.794v4.949a8.333,8.333,0,0,0-.542,2.963v.882A3.664,3.664,0,0,0,0,18.208v3.386a2.064,2.064,0,0,0,2.062,2.062H3.125v.3a2.812,2.812,0,0,0,2.809,2.809H17.066a2.812,2.812,0,0,0,2.809-2.809v-.3h1.063A2.064,2.064,0,0,0,23,21.594V18.208A3.664,3.664,0,0,0,19.875,14.588ZM3.125,22.281H2.062a.688.688,0,0,1-.687-.687V18.208a2.288,2.288,0,0,1,1.751-2.222ZM15.854,5.794a.285.285,0,0,1,.285-.285h1.534a.285.285,0,0,1,.285.285V8.38a8.439,8.439,0,0,0-2.1-1.825V5.794Zm-10.813,0a.285.285,0,0,1,.285-.285H6.861a.285.285,0,0,1,.285.285v.761a8.44,8.44,0,0,0-2.1,1.825V5.794ZM18.5,23.954h0a1.436,1.436,0,0,1-1.435,1.435H5.934A1.436,1.436,0,0,1,4.5,23.954V13.706a7,7,0,0,1,13.459-2.7h0a6.962,6.962,0,0,1,.541,2.7Zm3.125-2.36a.688.688,0,0,1-.687.687H19.875v-6.3a2.289,2.289,0,0,1,1.751,2.222Z" transform="translate(0 -4.135)" fill="#7aacb3"/></g></g></svg>